HIERARCHY
ROOT Hips
{
    OFFSET   0.000000   0.000000   0.000000
    CHANNELS 6 Xposition Yposition Zposition Zrotation Xrotation Yrotation
    JOINT Chest
    {
        OFFSET   0.000000   8.007230   0.000000
        CHANNELS 3 Zrotation Xrotation Yrotation
        JOINT Chest2
        {
            OFFSET   0.000000  22.077100   0.000000
            CHANNELS 3 Zrotation Xrotation Yrotation
            JOINT Neck
            {
                OFFSET   0.000000  23.254700   0.000000
                CHANNELS 3 Zrotation Xrotation Yrotation
                JOINT Head
                {
                    OFFSET   0.000010  14.370000   1.956610
                    CHANNELS 3 Zrotation Xrotation Yrotation
                    End Site
                    {
                        OFFSET   0.000000  19.566000   0.000000
                    }
                }
            }
            JOINT LeftCollar
            {
                OFFSET   3.911900  19.017000  -0.467063
                CHANNELS 3 Zrotation Xrotation Yrotation
                JOINT LeftShoulder
                {
                    OFFSET  10.383700   0.000000   0.000000
                    CHANNELS 3 Zrotation Xrotation Yrotation
                    JOINT LeftElbow
                    {
                        OFFSET  26.662100   0.001671   0.000522
                        CHANNELS 3 Zrotation Xrotation Yrotation
                        JOINT LeftWrist
                        {
                            OFFSET  28.869000   0.000037  -0.000114
                            CHANNELS 3 Zrotation Xrotation Yrotation
                            JOINT LeftFinger0
                            {
                                OFFSET   2.044650  -2.323450   3.252850
                                CHANNELS 3 Zrotation Xrotation Yrotation
                                JOINT LeftFinger01
                                {
                                    OFFSET   3.088140   0.000000   0.000000
                                    CHANNELS 3 Zrotation Xrotation Yrotation
                                    JOINT LeftFinger02
                                    {
                                        OFFSET   2.639460   0.000000   0.000000
                                        CHANNELS 3 Zrotation Xrotation Yrotation
                                        End Site
                                        {
                                            OFFSET   2.582190   0.000000   0.000000
                                        }
                                    }
                                }
                            }
                            JOINT LeftFinger1
                            {
                                OFFSET   8.364480   0.000000   3.252850
                                CHANNELS 3 Zrotation Xrotation Yrotation
                                JOINT LeftFinger11
                                {
                                    OFFSET   4.646930   0.000000   0.000000
                                    CHANNELS 3 Zrotation Xrotation Yrotation
                                    JOINT LeftFinger12
                                    {
                                        OFFSET   2.323470   0.000000   0.000000
                                        CHANNELS 3 Zrotation Xrotation Yrotation
                                        End Site
                                        {
                                            OFFSET   2.273050   0.000000   0.000000
                                        }
                                    }
                                }
                            }
                            JOINT LeftFinger2
                            {
                                OFFSET   8.364490   0.000016   1.078090
                                CHANNELS 3 Zrotation Xrotation Yrotation
                                JOINT LeftFinger21
                                {
                                    OFFSET   5.111620   0.000000   0.000000
                                    CHANNELS 3 Zrotation Xrotation Yrotation
                                    JOINT LeftFinger22
                                    {
                                        OFFSET   2.788150   0.000013   0.000000
                                        CHANNELS 3 Zrotation Xrotation Yrotation
                                        End Site
                                        {
                                            OFFSET   2.727660   0.000000   0.000000
                                        }
                                    }
                                }
                            }
                            JOINT LeftFinger3
                            {
                                OFFSET   7.899780   0.000016  -1.078090
                                CHANNELS 3 Zrotation Xrotation Yrotation
                                JOINT LeftFinger31
                                {
                                    OFFSET   4.646930   0.000000   0.000000
                                    CHANNELS 3 Zrotation Xrotation Yrotation
                                    JOINT LeftFinger32
                                    {
                                        OFFSET   2.323470   0.000000   0.000000
                                        CHANNELS 3 Zrotation Xrotation Yrotation
                                        End Site
                                        {
                                            OFFSET   2.273050   0.000000   0.000000
                                        }
                                    }
                                }
                            }
                            JOINT LeftFinger4
                            {
                                OFFSET   7.435080   0.000000  -3.252850
                                CHANNELS 3 Zrotation Xrotation Yrotation
                                JOINT LeftFinger41
                                {
                                    OFFSET   3.717550   0.000000   0.000000
                                    CHANNELS 3 Zrotation Xrotation Yrotation
                                    JOINT LeftFinger42
                                    {
                                        OFFSET   1.858760   0.000000   0.000000
                                        CHANNELS 3 Zrotation Xrotation Yrotation
                                        End Site
                                        {
                                            OFFSET   1.818440   0.000000   0.000000
                                        }
                                    }
                                }
                            }
                        }
                    }
                }
            }
            JOINT RightCollar
            {
                OFFSET  -3.911900  19.017000  -0.467064
                CHANNELS 3 Zrotation Xrotation Yrotation
                JOINT RightShoulder
                {
                    OFFSET -10.383700   0.000000   0.000000
                    CHANNELS 3 Zrotation Xrotation Yrotation
                    JOINT RightElbow
                    {
                        OFFSET -26.662100   0.001633   0.000260
                        CHANNELS 3 Zrotation Xrotation Yrotation
                        JOINT RightWrist
                        {
                            OFFSET -28.869000  -0.000045  -0.000080
                            CHANNELS 3 Zrotation Xrotation Yrotation
                            JOINT RightFinger0
                            {
                                OFFSET  -2.044660  -2.323490   3.252850
                                CHANNELS 3 Zrotation Xrotation Yrotation
                                JOINT RightFinger01
                                {
                                    OFFSET  -3.088140   0.000000   0.000000
                                    CHANNELS 3 Zrotation Xrotation Yrotation
                                    JOINT RightFinger02
                                    {
                                        OFFSET  -2.639450   0.000000   0.000000
                                        CHANNELS 3 Zrotation Xrotation Yrotation
                                        End Site
                                        {
                                            OFFSET  -2.582190   0.000000   0.000000
                                        }
                                    }
                                }
                            }
                            JOINT RightFinger1
                            {
                                OFFSET  -8.364480   0.000000   3.252850
                                CHANNELS 3 Zrotation Xrotation Yrotation
                                JOINT RightFinger11
                                {
                                    OFFSET  -4.646920   0.000000   0.000000
                                    CHANNELS 3 Zrotation Xrotation Yrotation
                                    JOINT RightFinger12
                                    {
                                        OFFSET  -2.323470   0.000000   0.000000
                                        CHANNELS 3 Zrotation Xrotation Yrotation
                                        End Site
                                        {
                                            OFFSET  -2.273050   0.000000   0.000000
                                        }
                                    }
                                }
                            }
                            JOINT RightFinger2
                            {
                                OFFSET  -8.364480   0.000000   1.078090
                                CHANNELS 3 Zrotation Xrotation Yrotation
                                JOINT RightFinger21
                                {
                                    OFFSET  -5.111610   0.000000   0.000000
                                    CHANNELS 3 Zrotation Xrotation Yrotation
                                    JOINT RightFinger22
                                    {
                                        OFFSET  -2.788160   0.000000   0.000000
                                        CHANNELS 3 Zrotation Xrotation Yrotation
                                        End Site
                                        {
                                            OFFSET  -2.727660   0.000000   0.000000
                                        }
                                    }
                                }
                            }
                            JOINT RightFinger3
                            {
                                OFFSET  -7.899780   0.000000  -1.078090
                                CHANNELS 3 Zrotation Xrotation Yrotation
                                JOINT RightFinger31
                                {
                                    OFFSET  -4.646930   0.000000   0.000000
                                    CHANNELS 3 Zrotation Xrotation Yrotation
                                    JOINT RightFinger32
                                    {
                                        OFFSET  -2.323470   0.000000   0.000000
                                        CHANNELS 3 Zrotation Xrotation Yrotation
                                        End Site
                                        {
                                            OFFSET  -2.273050   0.000000   0.000000
                                        }
                                    }
                                }
                            }
                            JOINT RightFinger4
                            {
                                OFFSET  -7.435090   0.000000  -3.252850
                                CHANNELS 3 Zrotation Xrotation Yrotation
                                JOINT RightFinger41
                                {
                                    OFFSET  -3.717550   0.000000   0.000000
                                    CHANNELS 3 Zrotation Xrotation Yrotation
                                    JOINT RightFinger42
                                    {
                                        OFFSET  -1.858760   0.000000   0.000000
                                        CHANNELS 3 Zrotation Xrotation Yrotation
                                        End Site
                                        {
                                            OFFSET  -1.818440   0.000000   0.000000
                                        }
                                    }
                                }
                            }
                        }
                    }
                }
            }
        }
    }
    JOINT LeftHip
    {
        OFFSET   9.782990   0.000000   0.000000
        CHANNELS 3 Zrotation Xrotation Yrotation
        JOINT LeftKnee
        {
            OFFSET  -0.000063 -41.789100   0.001657
            CHANNELS 3 Zrotation Xrotation Yrotation
            JOINT LeftAnkle
            {
                OFFSET   0.000078 -41.133200  -0.000113
                CHANNELS 3 Zrotation Xrotation Yrotation
                JOINT LeftToe
                {
                    OFFSET   0.000000  -6.358970  14.674500
                    CHANNELS 3 Zrotation Xrotation Yrotation
                    End Site
                    {
                        OFFSET   0.000000   0.000000   3.913200
                    }
                }
            }
        }
    }
    JOINT RightHip
    {
        OFFSET  -9.782990   0.000000   0.000000
        CHANNELS 3 Zrotation Xrotation Yrotation
        JOINT RightKnee
        {
            OFFSET   0.000053 -41.789200   0.000277
            CHANNELS 3 Zrotation Xrotation Yrotation
            JOINT RightAnkle
            {
                OFFSET   0.000030 -41.133200  -0.000150
                CHANNELS 3 Zrotation Xrotation Yrotation
                JOINT RightToe
                {
                    OFFSET   0.000000  -6.358960  14.674500
                    CHANNELS 3 Zrotation Xrotation Yrotation
                    End Site
                    {
                        OFFSET   0.000000   0.000000   3.913200
                    }
                }
            }
        }
    }
}
MOTION
Frames: 6
Frame Time:   0.016667
 -7.213390  88.984500   0.973960  -2.110900 -19.956400   3.757460   1.828270  11.085200   3.284280   3.062650  22.252900   6.387130   1.747270  -1.789110   0.054929   2.873740  -3.617480  -4.755330  -7.577080  -7.215860  -3.304300 -71.131000  27.443500  -7.971050   0.003476  -4.624910 -17.434300  15.226400  -2.219130   2.898870  38.636000  31.644200 -53.620600 -33.105100   0.000000   0.000040 -11.552600   0.002509   0.000040 -32.856800   4.660200  -7.168650 -27.122400   0.004681   0.001570 -18.985600  -0.003057   0.007168 -29.177900  -0.608091   1.084620 -43.781800   0.000110  -0.000000 -29.158700  -0.005279  -0.000000 -28.739700  -0.598548   1.090620 -40.112600  -0.005773  -0.001174 -26.715000  -0.004579  -0.000326 -36.020600  -0.734051   1.005580 -54.040600   0.000438  -0.001544 -35.991000   0.000954   0.000153  13.535500  -4.118240  14.112700  48.084700  -0.981702  46.263100 -35.251200 -32.070800  67.459400   4.110130 -34.124000  27.867700 -38.573300  61.251200  78.770800  67.709800  -0.005100  -0.001985  38.434700  -0.007031  -0.005677   3.400630   1.811010  28.646700   3.175180   0.012210  -0.001205   2.222620   0.002403  -0.001266  85.961500  -0.002154  -0.005784  85.961400  -0.005752  -0.000245  64.471100  -0.001427   0.003623  89.081300  -4.996050  -0.078704  91.119700  -0.003118   0.000107  68.339800   0.000603   0.002686  89.066800  -9.998290  -0.160725 110.000000  -0.006274  -0.000034  80.000000  -0.001142   0.007368   7.380060  18.994600   3.822230   4.118370   7.439370   0.929910  -8.375330  -6.255580  -3.684160  -0.000000   0.000000  -0.000000   8.820860  22.041600  -3.150020   0.517922   2.825700  -9.698790  -3.871960  -6.338330   1.489830  -0.000000   0.000000   0.000000
 -7.414690  88.971800   0.976439  -1.919860 -20.265300   4.212260   1.690900  11.339100   3.464000   2.747140  22.757700   6.784680   1.957760  -2.194230   0.075830   3.230100  -4.433430  -5.229870  -7.591930  -7.545590  -3.089970 -70.465100  28.040900  -8.555790   0.119213  -5.040960 -17.696900  14.858300  -1.972340   2.824970  38.577500  31.244000 -52.881500 -32.881400   0.000000   0.000000 -11.440700   0.002454   0.000080 -32.630900   4.529950  -7.028890 -26.926000   0.004881   0.001570 -18.848100  -0.003037   0.007475 -29.096600  -0.819774   1.475430 -43.662500   0.000097   0.000000 -29.079200  -0.005280   0.000000 -28.732600  -0.811609   1.480170 -40.055900  -0.005772  -0.001173 -26.677300  -0.004580  -0.000326 -36.035100  -0.992224   1.365740 -54.072000   0.000438  -0.001546 -36.011900   0.000956   0.000151  13.435900  -4.130770  14.206500  47.749100  -1.243500  45.466800 -35.145300 -33.949100  67.618300   4.574140 -33.465800  28.543400 -39.272200  61.193100  79.082800  66.940300  -0.005153   0.001646  37.922200  -0.006920  -0.005609   2.191500   1.247240  29.375300   2.064620   0.008948  -0.000773   1.445210   0.000536  -0.000928  86.619900  -0.002122  -0.003801  86.619800  -0.003556   0.000000  64.964900  -0.001455   0.001412  88.996300  -4.995950  -0.087485  91.397300  -0.003077   0.000209  68.548000   0.000528   0.002624  88.984700  -9.998160  -0.176302 110.000000  -0.006226  -0.000063  80.000000  -0.001202   0.007437   7.530890  18.926300   3.470100   4.139320   8.104780   0.800635  -8.519590  -6.502470  -3.780840  -0.000000   0.000000   0.000000   8.916890  22.337700  -3.229090   0.562392   2.841890  -9.836340  -3.938410  -6.399120   1.226950   0.000000   0.000000   0.000000
 -7.607150  88.954800   0.974738  -1.659840 -20.427400   4.855490   1.562140  11.464300   3.375670   2.490880  22.998000   6.626010   2.006740  -2.595360   0.091997   3.326310  -5.241430  -5.082040  -7.493160  -7.533100  -2.348270 -70.233300  27.844100  -8.790490   0.441050  -4.868160 -18.175600  14.420300  -1.860100   2.849000  38.699600  31.152600 -52.207500 -32.641600   0.000000   0.000000 -11.320800   0.002409   0.000040 -32.348900   4.395830  -6.895930 -26.686400   0.005081   0.001570 -18.680400  -0.003006   0.007791 -29.037700  -1.101880   1.983350 -43.558500   0.000085  -0.000000 -29.009900  -0.005279   0.000000 -28.715400  -1.090710   1.989640 -39.852000  -0.005773  -0.001174 -26.541500  -0.004580  -0.000327 -35.962600  -1.332810   1.836780 -53.977200   0.000437  -0.001548 -35.948800   0.000957   0.000151  13.435200  -3.470390  14.580600  48.538800  -1.792140  45.494400 -34.702400 -34.883600  69.335900   4.505680 -32.737800  28.603200 -38.787600  60.817200  78.051000  67.060500  -0.005270   0.001643  38.002300  -0.006869  -0.005515   1.470310   0.850322  29.573000   1.386350   0.003137  -0.000579   0.970443  -0.000456  -0.000578  85.998500  -0.002095  -0.003206  85.998500  -0.002886   0.000201  64.498900  -0.001449   0.000880  88.995700  -4.995840  -0.087531  90.913300  -0.003006   0.000299  68.185000   0.000470   0.002510  88.984700  -9.998010  -0.176297 110.000000  -0.006181  -0.000106  80.000000  -0.001246   0.007505   7.683230  18.567400   3.020650   4.170650   8.889980   0.595862  -8.676210  -6.734570  -3.914090   0.000000   0.000000   0.000000   8.981190  22.498300  -3.253880   0.632078   2.804530 -10.014100  -4.001400  -6.435060   0.825450   0.000000   0.000000   0.000000
 -7.778070  88.928900   0.962833  -1.395280 -20.468900   5.552610   1.499050  11.506300   3.210920   2.397250  23.077100   6.304540   2.014450  -2.877820   0.100758   3.331750  -5.814230  -4.827590  -7.413910  -7.479310  -1.792270 -70.255100  27.215000  -8.831760   0.753896  -4.379970 -18.670800  14.144500  -1.819610   2.915540  38.808000  31.158000 -51.814200 -32.494600   0.000000   0.000000 -11.247300   0.002361   0.000000 -32.178700   4.270880  -6.749680 -26.534000   0.005280   0.001570 -18.573800  -0.002968   0.008112 -29.004800  -1.284520   2.311590 -43.499100   0.000068  -0.000000 -28.970400  -0.005276   0.000000 -28.700000  -1.271040   2.319100 -39.566300  -0.005773  -0.001175 -26.351100  -0.004579  -0.000328 -35.893900  -1.552720   2.141660 -53.882400   0.000436  -0.001549 -35.885600   0.000957   0.000152  13.409800  -2.567860  14.873000  49.705400  -2.322150  45.603700 -34.351800 -35.472500  71.213800   4.348130 -32.293200  28.494100 -38.073900  60.519000  77.003200  67.338900  -0.005397   0.001624  38.187700  -0.006837  -0.005387   1.133350   0.644555  29.600300   1.065850  -0.001037  -0.000323   0.746111  -0.000985  -0.000201  85.113800  -0.002069  -0.002938  85.113800  -0.002582   0.000397  63.835400  -0.001421   0.000703  88.995500  -4.995740  -0.087558  90.236000  -0.002944   0.000382  67.677000   0.000410   0.002404  88.984700  -9.997840  -0.176291 110.000000  -0.006135  -0.000154  80.000000  -0.001285   0.007573   7.787530  18.001500   2.737410   4.240860   9.694570   0.310051  -8.835880  -6.943890  -4.085270   0.000000   0.000000  -0.000000   9.072930  22.551800  -3.258150   0.679367   2.745400 -10.234600  -4.071070  -6.462730   0.379859  -0.000000   0.000000   0.000000
 -7.896210  88.883000   0.931684  -1.182520 -20.411600   6.205280   1.550110  11.456200   3.031380   2.560990  22.977600   5.924670   1.853480  -2.933040   0.094140   3.069360  -5.931230  -4.604360  -7.392300  -7.338900  -1.833330 -70.747800  25.845100  -8.454190   1.029180  -3.270510 -19.009500  14.245400  -2.227290   3.061640  38.846500  31.374000 -52.239200 -32.582200   0.000000   0.000044 -11.291100   0.002300  -0.000000 -32.379300   4.182070  -6.549980 -26.686000   0.005480   0.001567 -18.680200  -0.002929   0.008439 -29.201200  -1.063570   1.903730 -44.053900   0.000028  -0.000000 -29.339900  -0.005257   0.000036 -28.698700  -1.048950   1.913240 -39.274400  -0.005772  -0.001175 -26.156700  -0.004579  -0.000328 -35.973500  -1.282760   1.766200 -53.982900   0.000438  -0.001547 -35.952500   0.000957   0.000150  13.385400  -2.241060  14.680800  51.337500  -2.645420  45.944100 -34.211400 -34.615500  73.055200   4.184560 -32.563200  28.380700 -37.918200  60.677300  77.246900  67.764700  -0.005535   0.001497  38.471300  -0.006812  -0.005219   1.423180   0.804475  29.494400   1.337510  -0.001266   0.000320   0.936278  -0.001364   0.000203  84.681700  -0.002043  -0.002525  84.681700  -0.002137   0.000621  63.511300  -0.001365   0.000344  88.995100  -4.995640  -0.087652  89.977400  -0.002892   0.000462  67.483000   0.000346   0.002305  88.984700  -9.997650  -0.176296 110.000000  -0.006086  -0.000204  80.000000  -0.001324   0.007644   7.840570  17.374200   2.730540   4.407640  10.443400  -0.116306  -8.992370  -7.115740  -4.312640   0.000000   0.000000   0.000000   9.242660  22.484700  -3.167890   0.684207   2.692960 -10.537100  -4.162110  -6.493510  -0.057370   0.000000   0.000000   0.000000
 -7.995720  88.830800   0.893348  -1.023800 -20.355200   6.772240   1.627400  11.405900   2.862030   2.742480  22.876700   5.556360   1.594290  -2.940930   0.082098   2.638510  -5.949330  -4.401150  -7.381150  -7.237640  -1.917590 -71.337000  24.516400  -7.956050   1.127740  -2.482420 -19.168700  14.491700  -2.915630   3.166320  38.895900  31.733400 -52.917000 -32.778200   0.000000   0.000088 -11.389100   0.002234   0.000000 -32.693100   4.141750  -6.425670 -26.937300   0.005680   0.001564 -18.856100  -0.002883   0.008771 -29.394500  -0.842461   1.495950 -44.608700   0.000000  -0.000000 -29.709400  -0.005242   0.000072 -28.691700  -0.826714   1.507470 -39.012600  -0.005771  -0.001175 -25.982400  -0.004578  -0.000327 -36.112500  -1.012640   1.390860 -54.178800   0.000441  -0.001546 -36.083000   0.000957   0.000148  13.370700  -2.160160  14.410600  52.484100  -2.775460  46.199500 -34.202900 -33.688300  74.088800   3.880790 -32.854000  28.183400 -37.772700  60.946500  77.601100  68.206300  -0.005681   0.001264  38.765400  -0.006802  -0.005021   1.830160   1.028940  29.346600   1.718010  -0.001299   0.001085   1.202630  -0.001490   0.000642  84.512900  -0.002018  -0.002116  84.512900  -0.001719   0.000853  63.384700  -0.001280   0.000000  88.994600  -4.995540  -0.087768  89.850800  -0.002848   0.000537  67.388100   0.000278   0.002213  88.984700  -9.997450  -0.176302 110.000000  -0.006035  -0.000253  80.000000  -0.001362   0.007713   7.929300  16.794700   2.740740   4.617550  11.088700  -0.565207  -9.140600  -7.249690  -4.564500   0.000000   0.000000  -0.000000   9.445890  22.417600  -3.077730   0.689820   2.661980 -10.830000  -4.256870  -6.530250  -0.431811  -0.000000   0.000000   0.000000
